# xmcd CD database file
#
# Track frame offsets:
#	150
#	25452
#	49984
#	65758
#	86231
#	105551
#	131100
#	148409
#	161441
#	181971
#	202587
#	222783
#
# Disc length: 3214 seconds
#
# Revision: 0
# Processed by: cddbd v1.4PL0 Copyright (c) Steve Scherf et al.
# Submitted via: CDex 1.50
#
DISCID=b40c8c0c
DTITLE=Kenny G - The Essential Kenny G
DYEAR=2002
DGENRE=Jazz
TTITLE0=Going Home
TTITLE1=Always
TTITLE2=Baby G
TTITLE3=East Side Jam
TTITLE4=Esther
TTITLE5=Havana
TTITLE6=Innocence
TTITLE7=Loving you
TTITLE8=Northern Lights
TTITLE9=Silhouette
TTITLE10=The Moment
TTITLE11=You Send me
EXTD=YEAR: 2002
EXTT0=
EXTT1=
EXTT2=
EXTT3=
EXTT4=
EXTT5=
EXTT6=
EXTT7=
EXTT8=
EXTT9=
EXTT10=
EXTT11=
PLAYORDER=
